<svg xmlns="http://www.w3.org/2000/svg" viewBox="0 0 324.62 324.73"><defs><style>.cls-1{fill:#231f20;}.cls-2{fill:#fff;}.cls-3{fill:none;}.cls-4{fill:#ffb530;}</style></defs><title>Asset 1</title><g id="Layer_2" data-name="Layer 2"><g id="Layer_1-2" data-name="Layer 1"><path class="cls-1" d="M126,200.3a27,27,0,0,0,3.63-.86c-1.21,0-2.42,0-3.63-.09Z"/><path class="cls-2" d="M6.59,107.48q-1-3.18-1.78-6.42A11.6,11.6,0,0,0,6.59,107.48Z"/><path class="cls-3" d="M11,119.61v0Z"/><path class="cls-4" d="M98,115.4H57.87a4.64,4.64,0,0,1,0,.78c-.47,5.44,0,11.14,0,16.6,0,10.8,2.57,25.31-9.82,30.72a16.88,16.88,0,0,1-3.72,1.09v1.77a130.47,130.47,0,0,0,19.17,14.25V135.5c0-6.45,10-6.46,10-.07q0,25.34,0,50.67A129.17,129.17,0,0,0,93.74,194V135.5c0-6.45,10-6.46,10-.07q0,30.59,0,61.17a129.67,129.67,0,0,0,13.45,2.14V119.26A25,25,0,0,1,98,115.4Z"/><path class="cls-4" d="M24.47,125.79c0-2,.32-4.94.27-7.46a22.16,22.16,0,0,1-5,1.92v16.65c1.48,2.43,3.06,4.79,4.69,7.11Z"/><path class="cls-1" d="M15.38,120.45a19.3,19.3,0,0,1-4.4-.84v0c1.34,3.19,2.82,6.3,4.4,9.36Z"/><path class="cls-1" d="M19.78,120.26a11.18,11.18,0,0,1-1.34.2,19.7,19.7,0,0,1-3.06,0V129c1.39,2.69,2.84,5.34,4.4,7.91Z"/><path class="cls-1" d="M44.31,166.37V164.6c-.56.1-1.11.19-1.68.24Q43.47,165.61,44.31,166.37Z"/><path class="cls-1" d="M73.53,135.44c-.07-6.39-10-6.38-10,.07v45.11c3.25,2,6.61,3.8,10,5.49Q73.53,160.77,73.53,135.44Z"/><path class="cls-1" d="M103.78,135.44c-.07-6.39-10-6.38-10,.07V194q4.94,1.48,10,2.57Q103.78,166,103.78,135.44Z"/><path class="cls-2" d="M148.3,164.49c0-15.76-9.65-28.87-22.27-31.38v62.77C138.66,193.36,148.3,180.25,148.3,164.49Z"/><path class="cls-1" d="M121.28,199.08l.35,0V187.95C121.64,192,121.51,195.64,121.28,199.08Z"/><path class="cls-1" d="M126,124.22v8.89c12.62,2.51,22.27,15.63,22.27,31.38s-9.65,28.88-22.27,31.38v3.48c1.21,0,2.41.08,3.63.09.44,0,.88,0,1.32,0,3.06,0,6.08-.14,9.09-.35,10.19-7.14,17-20,17-34.64C157.11,143.8,143.52,126.71,126,124.22Z"/><path class="cls-2" d="M20.74,112.53a15.16,15.16,0,0,0,2.8-1.53H15.38v2.1A12.46,12.46,0,0,0,20.74,112.53Z"/><path class="cls-1" d="M108.3,75.77a22.64,22.64,0,0,0-1.58-2.33,26,26,0,0,0-2.56.64Z"/><path class="cls-1" d="M116.7,73.25c.33.08.63.19,1,.28A3.67,3.67,0,0,0,116.7,73.25Z"/><path class="cls-1" d="M11,115.75a15.35,15.35,0,0,1-1.88-.89q.89,2.4,1.87,4.75h0Z"/><path class="cls-1" d="M12.27,82.53c-.59.16-1.15.36-1.71.57-.3.65-.6,1.3-.85,2Z"/><path class="cls-1" d="M115.74,73.15c.32,0,.63.05,1,.1A4,4,0,0,0,115.74,73.15Z"/><path class="cls-1" d="M25.7,116.77l.24.32-.81-.39.57.07-1.05-1.37h-.25a12.12,12.12,0,0,1,.35,2.93A20.93,20.93,0,0,1,28,117.07Z"/><path class="cls-1" d="M25.94,117.09l-.24-.32-.57-.07Z"/><path class="cls-1" d="M14.06,116.65a15,15,0,0,1-3.08-.9v3.86a19.3,19.3,0,0,0,4.4.84V116.8C14.94,116.77,14.51,116.73,14.06,116.65Z"/><path class="cls-1" d="M95.67,113.6c.45.39.92.72,1.38,1.07h1.21Z"/><path class="cls-1" d="M18.44,120.45a11.18,11.18,0,0,0,1.34-.2v-3.7a15.75,15.75,0,0,1-4.4.24v3.64A19.7,19.7,0,0,0,18.44,120.45Z"/><path class="cls-1" d="M23.36,115.4h1c0-.16-.08-.34-.13-.48C24,115.09,23.67,115.26,23.36,115.4Z"/><path class="cls-1" d="M24.27,114.92h0c.05.14.09.32.13.48h.25Z"/><path class="cls-1" d="M41.77,161.13H40.56a12.23,12.23,0,0,1-2-.2c1.32,1.34,2.68,2.63,4.06,3.91.56,0,1.12-.13,1.68-.24v-3.74A12.34,12.34,0,0,1,41.77,161.13Z"/><path class="cls-1" d="M6.59,107.48q1.14,3.74,2.51,7.38a15.35,15.35,0,0,0,1.88.89v-4.06A12.33,12.33,0,0,1,6.59,107.48Z"/><path class="cls-1" d="M38.56,75.61l-.13-.06-.06.11Z"/><path class="cls-1" d="M119,77.78a16.73,16.73,0,0,0-6.85-1.3,3.24,3.24,0,0,0,2.57,3.85A3.94,3.94,0,0,0,119,77.78Z"/><path class="cls-1" d="M43.39,74.35l-.18-.12-.14.2Z"/><path class="cls-1" d="M19.78,115.4v1.16a15.49,15.49,0,0,0,3.58-1.16Z"/><path class="cls-1" d="M15.38,116.8v-3.7a11.3,11.3,0,0,1-2.26-.45,11.68,11.68,0,0,1-2.14-1v4.06a15,15,0,0,0,3.08.9C14.51,116.73,14.94,116.77,15.38,116.8Z"/><path class="cls-1" d="M24.25,114.89v0h0Z"/><path class="cls-1" d="M105.57,0A105.57,105.57,0,1,0,211.14,105.57,105.69,105.69,0,0,0,105.57,0ZM24.74,118.34c0,2.51-.27,5.47-.27,7.46v7.36a84.93,84.93,0,0,1-3.36-13.26,31.72,31.72,0,0,0,3.63-1.56,12.15,12.15,0,0,0-.35-2.93h-1a15.18,15.18,0,0,1-2.77.95c0-.32-.08-.63-.12-.95h2.89c.31-.15.61-.31.91-.48v0l0,0,.37.48,1.05,1.37,2.26.3A20.94,20.94,0,0,0,24.74,118.34Zm1.74-4.76a1.31,1.31,0,0,1,1.21.31A1.31,1.31,0,0,0,26.48,113.58Zm5.29,34.29c-.1-2.44,0-4.92,0-7.35,0-8.1.21-16.24,0-24.34,0-.26,0-.52-.07-.78a6.63,6.63,0,0,0-1.92-4.4A4.56,4.56,0,0,0,26,110a6.47,6.47,0,0,0-2.46,1,15.17,15.17,0,0,1-2.8,1.53c-.17.06-.36.1-.54.15-.19-2.35-.32-4.71-.32-7.11a85.31,85.31,0,0,1,4.3-26.74c4.7-2.31,10.48-1.85,15.47,1.83a3.38,3.38,0,0,0,5.05-1.31C50.82,65.55,68,62.76,78,74.24a3.69,3.69,0,0,0,4.44.57c7-4.4,15.31-2.53,19.51,4.66a3.73,3.73,0,0,0,4.14,1.69,18.4,18.4,0,0,1,8.64-.84c12.44,2.9,16.79,17.58,10,26.28a15.41,15.41,0,0,1-5.55,4.4,18,18,0,0,1-2,.89,16.47,16.47,0,0,1-10.33.06,9.77,9.77,0,0,1-2-.94c-2.22-1.33-4.12-3.26-6.61-3.67a39.61,39.61,0,0,0-6.14,0H65c-5,0-11-.59-13.41,3.67a9,9,0,0,0-1,3.88c0,.17,0,.35,0,.53-.4,6.91,0,14,0,20.89,0,6.67,2.1,18.18-6.21,20.73-.29.09-.57.2-.89.26a9.27,9.27,0,0,1-7.12-1.43c-1.53-2.1-3-4.24-4.33-6.48A9.77,9.77,0,0,1,31.77,147.87Zm89.87,41.85h0c0-.6,0-1.16,0-1.78ZM40.45,161.12h1.32a12.35,12.35,0,0,0,2.55-.27v3.74A16.87,16.87,0,0,0,48,163.51c12.38-5.41,9.82-19.92,9.82-30.72,0-5.46-.47-11.16,0-16.6a4.66,4.66,0,0,0,0-.78H98a25,25,0,0,0,19.22,3.86v71.18a85.23,85.23,0,0,1-76.79-29.32ZM126,188.76V115.4a22.87,22.87,0,0,0,7.11-8.53c6.66-13.61-1.29-29.43-15.49-33.35-.32-.09-.63-.2-1-.28s-.64-.06-1-.1a27.33,27.33,0,0,0-9,.29,20.72,20.72,0,0,0-25.42-6.31C69,55.51,48.92,58,40.11,72.36a21,21,0,0,0-12.58-2.09A85.67,85.67,0,1,1,126,188.76Z"/><path class="cls-1" d="M201.39,162.56a48,48,0,0,1-9,10.91l112.18,67.31c5.69,3.41,12.93.66,15.18-3.09l3.72-6.22c2.29-3.83,1.14-11.23-4.56-14.64L206.78,149.52A48,48,0,0,1,201.39,162.56Z"/><path d="M38.4,307.86c0,10.3-8.09,16.11-19.54,16.11H0v-54.2H17.48c11.3,0,17.86,6.18,17.86,15a13.51,13.51,0,0,1-5,10.23C34.88,297.79,38.4,302.14,38.4,307.86ZM11.53,290.23h6c3.74,0,6.34-1.45,6.34-4.81,0-3.2-2.6-4.81-6.34-4.81h-6Zm15.34,16.95c0-3.59-2.82-6.11-7.86-6.11H11.53v12h7.33C24,313.05,26.87,310.76,26.87,307.18Z"/><path d="M62.67,307.79H55V324H43.43v-54.2H64.65c10.23,0,19.85,7.17,19.85,19a18.22,18.22,0,0,1-10.23,16.79L85.18,324h-13ZM55,296.95h9.62c4.66,0,8.32-3.05,8.32-8.17s-3.66-8.17-8.32-8.17H55Z"/><path d="M103.42,280.61v10.53h15.72v10.91H103.42v11h19.85V324H91.82v-54.2h31.45v10.84Z"/><path d="M202.06,269.77l-15,54.2H174.54l-9.7-35-9.7,35H142.61l-15.07-54.2h10.66l10.67,38.85,10.6-38.85h10.67l10.66,38.85,10.6-38.85Z"/><path d="M214.91,306.57c.08,5,3.44,7.25,7.48,7.25s6-2,6-4.27c0-3.28-3.36-4.81-9.24-8.24-12-7.1-14.66-11.37-14.66-18,0-8.47,7.17-14.27,16.49-14.27,10.53,0,17.25,7.86,17.33,17.86H226.81c-.08-4.58-2.44-7-5.8-7-2.75,0-5,1.53-5,4,0,3,2.14,4.27,7.4,7.25C234.29,297.18,240,301.83,240,310c0,9.54-8.24,14.73-17.63,14.73-12.59,0-18.93-9.31-19-18.17Z"/><path d="M256.27,280.61v10.53H272v10.91H256.27v11h19.85V324H244.67v-54.2h31.45v10.84Z"/><path d="M301.31,307.79h-7.63V324h-11.6v-54.2h21.22c10.23,0,19.85,7.17,19.85,19a18.22,18.22,0,0,1-10.23,16.79L323.82,324h-13Zm-7.63-10.84h9.62c4.66,0,8.32-3.05,8.32-8.17s-3.66-8.17-8.32-8.17h-9.62Z"/></g></g></svg>